<svg width="16" height="16" viewBox="0 0 16 16" fill="none" xmlns="http://www.w3.org/2000/svg">
  <path d="M5.6 2.8 C4.4 2.8 4.4 3.7 4.4 4.7 C4.4 6.2 4.3 7.3 2.9 8 C4.3 8.7 4.4 9.8 4.4 11.3 C4.4 12.3 4.4 13.2 5.6 13.2" stroke="#CED0D6" stroke-width="1.3" stroke-linecap="round"/>
  <path d="M10.4 2.8 C11.6 2.8 11.6 3.7 11.6 4.7 C11.6 6.2 11.7 7.3 13.1 8 C11.7 8.7 11.6 9.8 11.6 11.3 C11.6 12.3 11.6 13.2 10.4 13.2" stroke="#CED0D6" stroke-width="1.3" stroke-linecap="round"/>
  <path d="M6.9 6.9 L9.1 9.1 M9.1 6.9 L6.9 9.1" stroke="#CED0D6" stroke-width="1.3" stroke-linecap="round"/>
</svg>
